<mxfile host="app.diagrams.net" modified="2024-06-23T18:33:09.937Z" agent="Mozilla/5.0 (Windows NT 10.0; Win64; x64) AppleWebKit/537.36 (KHTML, like Gecko) Chrome/126.0.0.0 Safari/537.36 Edg/126.0.0.0" version="24.6.2" etag="yh_3IUZauobFx946kuyC" type="github">
  <diagram name="Page-1" id="ynsL9WGyO4QGMtgc7KBr">
    <mxGraphModel>
      <root>
        <mxCell id="0" />
        <mxCell id="1" parent="0" />
      </root>
    </mxGraphModel>
  </diagram>
</mxfile>
